<svg xmlns="http://www.w3.org/2000/svg" viewBox="0 0 42.667 30">
  <defs>
    <style>
      .cls-1 {
        fill: #818181;
      }
    </style>
  </defs>
  <path id="Path_8" data-name="Path 8" class="cls-1" d="M41.775,4.694A5.362,5.362,0,0,0,38,.9C34.676,0,21.334,0,21.334,0S7.991,0,4.664.9a5.36,5.36,0,0,0-3.772,3.8C0,8.043,0,15.03,0,15.03s0,6.988.891,10.336A5.281,5.281,0,0,0,4.663,29.1c3.328.9,16.67.9,16.67.9S34.676,30,38,29.1a5.28,5.28,0,0,0,3.772-3.736c.891-3.349.891-10.336.891-10.336S42.666,8.043,41.775,4.694ZM16.97,21.374V8.686L28.121,15.03,16.97,21.374Z"/>
</svg>
