<svg xmlns="http://www.w3.org/2000/svg" viewBox="0 0 30 30">
  <defs>
    <style>
      .cls-1 {
        fill: #818181;
      }
    </style>
  </defs>
  <path id="Path_6" data-name="Path 6" class="cls-1" d="M30,1.654V28.339a1.653,1.653,0,0,1-1.654,1.654H20.7V18.382h3.9l.583-4.527H20.692V10.962c0-1.313.362-2.2,2.243-2.2h2.4V4.708a32.231,32.231,0,0,0-3.5-.181c-3.455,0-5.826,2.109-5.826,5.987v3.342H12.1v4.527h3.911V30H1.654A1.658,1.658,0,0,1,0,28.346V1.654A1.658,1.658,0,0,1,1.654,0H28.339A1.659,1.659,0,0,1,30,1.654Z"/>
</svg>
