<svg xmlns="http://www.w3.org/2000/svg" viewBox="0 0 30.007 30">
  <defs>
    <style>
      .cls-1 {
        fill: #818181;
      }
    </style>
  </defs>
  <path id="Path_7" data-name="Path 7" class="cls-1" d="M15,7.313A7.692,7.692,0,1,0,22.694,15,7.679,7.679,0,0,0,15,7.313ZM15,20a5,5,0,1,1,5-5,5.01,5.01,0,0,1-5,5ZM24.8,7A1.794,1.794,0,1,1,23.008,5.2,1.79,1.79,0,0,1,24.8,7ZM29.9,8.82a8.878,8.878,0,0,0-2.423-6.286A8.937,8.937,0,0,0,21.187.11C18.71-.03,11.286-.03,8.81.11A8.924,8.924,0,0,0,2.524,2.527,8.907,8.907,0,0,0,.1,8.813C-.04,11.29-.04,18.714.1,21.19a8.878,8.878,0,0,0,2.423,6.286A8.948,8.948,0,0,0,8.81,29.9c2.477.141,9.9.141,12.378,0a8.878,8.878,0,0,0,6.286-2.423A8.937,8.937,0,0,0,29.9,21.19c.141-2.478.141-9.895,0-12.371ZM26.7,23.847A5.063,5.063,0,0,1,23.845,26.7c-1.975.783-6.661.6-8.843.6s-6.875.174-8.843-.6a5.063,5.063,0,0,1-2.852-2.852c-.783-1.975-.6-6.661-.6-8.843s-.174-6.875.6-8.843A5.063,5.063,0,0,1,6.159,3.31c1.975-.783,6.661-.6,8.843-.6s6.875-.174,8.843.6A5.063,5.063,0,0,1,26.7,6.161c.783,1.975.6,6.661.6,8.843S27.48,21.879,26.7,23.847Z" transform="translate(0.005 -0.005)"/>
</svg>
