<svg xmlns="http://www.w3.org/2000/svg" viewBox="0 0 30.219 30">
  <defs>
    <style>
      .cls-1 {
        fill: #818181;
      }
    </style>
  </defs>
  <path id="Path_9" data-name="Path 9" class="cls-1" d="M10.108,24.156c0,.124-.14.223-.317.223-.2.019-.341-.081-.341-.223,0-.124.14-.223.317-.223C9.949,23.914,10.108,24.013,10.108,24.156Zm-1.895-.279c-.043.124.079.267.262.3a.283.283,0,0,0,.378-.124c.037-.124-.079-.267-.262-.323a.31.31,0,0,0-.378.143Zm2.693-.105c-.177.043-.3.161-.28.3.018.124.177.2.359.161s.3-.161.28-.285S11.082,23.753,10.906,23.771ZM14.915,0A14.743,14.743,0,0,0,0,15.136,15.535,15.535,0,0,0,10.327,29.975c.78.143,1.054-.347,1.054-.751,0-.385-.018-2.506-.018-3.809,0,0-4.265.931-5.16-1.849,0,0-.695-1.805-1.694-2.27,0,0-1.4-.974.1-.955a3.206,3.206,0,0,1,2.352,1.6,3.189,3.189,0,0,0,4.442,1.3,3.472,3.472,0,0,1,.975-2.091c-3.406-.385-6.842-.887-6.842-6.855A4.745,4.745,0,0,1,6.97,10.639a5.96,5.96,0,0,1,.158-4.212c1.273-.4,4.2,1.675,4.2,1.675a14.146,14.146,0,0,1,7.652,0s2.931-2.084,4.2-1.675a5.958,5.958,0,0,1,.158,4.212,4.862,4.862,0,0,1,1.572,3.654c0,5.986-3.589,6.464-6.994,6.855a3.7,3.7,0,0,1,1.036,2.878c0,2.091-.018,4.677-.018,5.186,0,.4.28.893,1.054.751A15.4,15.4,0,0,0,30.219,15.136,15.068,15.068,0,0,0,14.915,0ZM5.922,21.4c-.079.062-.061.2.043.323.1.1.238.143.317.062.079-.062.061-.2-.043-.323C6.141,21.358,6,21.315,5.922,21.4Zm-.658-.5c-.043.081.018.18.14.242a.179.179,0,0,0,.262-.043c.043-.081-.018-.18-.14-.242C5.4,20.812,5.307,20.831,5.264,20.893ZM7.238,23.1c-.1.081-.061.267.079.385.14.143.317.161.4.062.079-.081.043-.267-.079-.385C7.5,23.021,7.317,23,7.238,23.1Zm-.695-.912c-.1.062-.1.223,0,.366s.262.2.341.143a.287.287,0,0,0,0-.385c-.085-.143-.244-.2-.341-.124Z" transform="translate(0)"/>
</svg>
